<svg width="28" height="28" viewBox="0 0 28 28" fill="none" xmlns="http://www.w3.org/2000/svg">
<path d="M6.3 28H1.4C0.63 28 0 27.3 0 26.4444V10.8889C0 10.0333 0.63 9.33333 1.4 9.33333H6.3C7.07 9.33333 7.7 10.0333 7.7 10.8889V26.4444C7.7 27.3 7.07 28 6.3 28ZM16.45 0H11.55C10.78 0 10.15 0.7 10.15 1.55556V26.4444C10.15 27.3 10.78 28 11.55 28H16.45C17.22 28 17.85 27.3 17.85 26.4444V1.55556C17.85 0.7 17.22 0 16.45 0ZM26.6 12.4444H21.7C20.93 12.4444 20.3 13.1444 20.3 14V26.4444C20.3 27.3 20.93 28 21.7 28H26.6C27.37 28 28 27.3 28 26.4444V14C28 13.1444 27.37 12.4444 26.6 12.4444Z" fill="white"/>
</svg>
