<svg width="28" height="28" viewBox="0 0 28 28" fill="none" xmlns="http://www.w3.org/2000/svg">
<path d="M5.55305e-06 2.26512V25.7317C5.55305e-06 27.5211 2.40113 28.6084 4.25028 27.6344L26.716 15.9011C27.1093 15.6968 27.4333 15.4142 27.6578 15.0796C27.8823 14.7449 28 14.3691 28 13.9871C28 13.6051 27.8823 13.2293 27.6578 12.8946C27.4333 12.56 27.1093 12.2774 26.716 12.0731L4.25028 0.362427C3.83399 0.141453 3.35276 0.0167862 2.85734 0.00157962C2.36192 -0.013627 1.87068 0.0811897 1.43545 0.276027C1.00022 0.470865 0.637127 0.7585 0.384484 1.10859C0.131841 1.45868 -0.000989799 1.85824 5.55305e-06 2.26512Z" fill="white"/>
</svg>
