<svg width="28" height="28" viewBox="0 0 28 28" fill="none" xmlns="http://www.w3.org/2000/svg">
<path d="M24.7988 14C24.7988 13.678 24.7844 13.37 24.7556 13.048L27.4337 11.074C28.0096 10.654 28.168 9.87 27.8081 9.254L25.1156 4.732C24.9429 4.43546 24.6637 4.2114 24.3315 4.10287C23.9993 3.99434 23.6375 4.00898 23.3158 4.144L20.2201 5.418C19.6874 5.054 19.1258 4.732 18.5355 4.466L18.1179 1.232C18.0316 0.532 17.4124 0 16.6925 0H11.3219C10.5876 0 9.96845 0.532 9.88206 1.232L9.4645 4.466C8.87417 4.732 8.31263 5.054 7.77989 5.418L4.68423 4.144C4.0219 3.864 3.24439 4.116 2.88443 4.732L0.191928 9.268C-0.168032 9.884 -0.00964987 10.654 0.566286 11.088L3.24439 13.062C3.1847 13.6907 3.1847 14.3233 3.24439 14.952L0.566286 16.926C-0.00964987 17.346 -0.168032 18.13 0.191928 18.746L2.88443 23.268C3.24439 23.884 4.0219 24.136 4.68423 23.856L7.77989 22.582C8.31263 22.946 8.87417 23.268 9.4645 23.534L9.88206 26.768C9.96845 27.468 10.5876 28 11.3075 28H16.6781C17.398 28 18.0172 27.468 18.1035 26.768L18.5211 23.534C19.1114 23.268 19.673 22.946 20.2057 22.582L23.3014 23.856C23.9637 24.136 24.7412 23.884 25.1012 23.268L27.7937 18.746C28.1536 18.13 27.9952 17.36 27.4193 16.926L24.7412 14.952C24.7844 14.63 24.7988 14.322 24.7988 14ZM14.0576 18.9C11.2787 18.9 9.01815 16.702 9.01815 14C9.01815 11.298 11.2787 9.1 14.0576 9.1C16.8365 9.1 19.097 11.298 19.097 14C19.097 16.702 16.8365 18.9 14.0576 18.9Z" fill="white"/>
</svg>
